<svg width="57" height="57" viewBox="0 0 57 57" fill="none" xmlns="http://www.w3.org/2000/svg">
<rect width="57" height="57" rx="15" fill="#0D6EFD"/>
<path d="M23 44H19.3333C17.3884 44 15.5232 43.2215 14.1479 41.8357C12.7726 40.4499 12 38.5704 12 36.6106V24.987C12 23.7165 12.3251 22.4673 12.9439 21.3603C13.5628 20.2533 14.4544 19.3257 15.5328 18.6673L24.6995 13.0698C25.8455 12.37 27.16 12 28.5 12C29.84 12 31.1545 12.37 32.3005 13.0698L41.4672 18.6673C42.5453 19.3256 43.4368 20.2528 44.0556 21.3595C44.6745 22.4662 44.9997 23.7149 45 24.9852V36.6106C45 38.5704 44.2274 40.4499 42.8521 41.8357C41.4768 43.2215 39.6116 44 37.6667 44H34M23 44V36.6106C23 35.1407 23.5795 33.7311 24.6109 32.6918C25.6424 31.6524 27.0413 31.0685 28.5 31.0685V31.0685C29.9587 31.0685 31.3576 31.6524 32.3891 32.6918C33.4205 33.7311 34 35.1407 34 36.6106V44M23 44H34Z" fill="#0D6EFD"/>
<path d="M23 44H19.3333C17.3884 44 15.5232 43.2215 14.1479 41.8357C12.7726 40.4499 12 38.5704 12 36.6106V24.987C12 23.7165 12.3251 22.4673 12.9439 21.3603C13.5628 20.2533 14.4544 19.3257 15.5328 18.6673L24.6995 13.0698C25.8455 12.37 27.16 12 28.5 12C29.84 12 31.1545 12.37 32.3005 13.0698L41.4672 18.6673C42.5453 19.3256 43.4368 20.2528 44.0556 21.3595C44.6745 22.4662 44.9997 23.7149 45 24.9852V36.6106C45 38.5704 44.2274 40.4499 42.8521 41.8357C41.4768 43.2215 39.6116 44 37.6667 44H34M23 44V36.6106C23 35.1407 23.5795 33.7311 24.6109 32.6918C25.6424 31.6524 27.0413 31.0685 28.5 31.0685V31.0685C29.9587 31.0685 31.3576 31.6524 32.3891 32.6918C33.4205 33.7311 34 35.1407 34 36.6106V44M23 44H34" stroke="white" stroke-opacity="0.9" stroke-width="5" stroke-linecap="round" stroke-linejoin="round"/>
</svg>
